<svg width="33" height="32" viewBox="0 0 33 32" fill="none" xmlns="http://www.w3.org/2000/svg">
<g clip-path="url(#clip0_237_4365)">
<path d="M16.4998 2.66675C9.13984 2.66675 3.1665 8.64008 3.1665 16.0001C3.1665 23.3601 9.13984 29.3334 16.4998 29.3334C23.8598 29.3334 29.8332 23.3601 29.8332 16.0001C29.8332 8.64008 23.8598 2.66675 16.4998 2.66675ZM16.4998 8.00008C19.0732 8.00008 21.1665 10.0934 21.1665 12.6667C21.1665 15.2401 19.0732 17.3334 16.4998 17.3334C13.9265 17.3334 11.8332 15.2401 11.8332 12.6667C11.8332 10.0934 13.9265 8.00008 16.4998 8.00008ZM16.4998 26.6667C13.7932 26.6667 10.5932 25.5734 8.31317 22.8267C10.5665 21.0667 13.4065 20.0001 16.4998 20.0001C19.5932 20.0001 22.4332 21.0667 24.6865 22.8267C22.4065 25.5734 19.2065 26.6667 16.4998 26.6667Z" fill="#718096"/>
</g>
<defs>
<clipPath id="clip0_237_4365">
<rect width="32" height="32" fill="white" transform="translate(0.5)"/>
</clipPath>
</defs>
</svg>
