<svg width="32" height="32" viewBox="0 0 32 32" fill="none" xmlns="http://www.w3.org/2000/svg">
<g clip-path="url(#clip0_239_1618)">
<path d="M16 2.6665C8.64002 2.6665 2.66669 8.63984 2.66669 15.9998C2.66669 23.3598 8.64002 29.3332 16 29.3332C23.36 29.3332 29.3334 23.3598 29.3334 15.9998C29.3334 8.63984 23.36 2.6665 16 2.6665ZM16 7.99984C18.5734 7.99984 20.6667 10.0932 20.6667 12.6665C20.6667 15.2398 18.5734 17.3332 16 17.3332C13.4267 17.3332 11.3334 15.2398 11.3334 12.6665C11.3334 10.0932 13.4267 7.99984 16 7.99984ZM16 26.6665C13.2934 26.6665 10.0934 25.5732 7.81335 22.8265C10.0667 21.0665 12.9067 19.9998 16 19.9998C19.0934 19.9998 21.9334 21.0665 24.1867 22.8265C21.9067 25.5732 18.7067 26.6665 16 26.6665Z" fill="#718096"/>
</g>
<defs>
<clipPath id="clip0_239_1618">
<rect width="32" height="32" fill="white"/>
</clipPath>
</defs>
</svg>
