<svg width="33" height="32" viewBox="0 0 33 32" fill="none" xmlns="http://www.w3.org/2000/svg">
<g clip-path="url(#clip0_304_548)">
<path d="M16.4998 2.6665C9.13984 2.6665 3.1665 8.63984 3.1665 15.9998C3.1665 23.3598 9.13984 29.3332 16.4998 29.3332C23.8598 29.3332 29.8332 23.3598 29.8332 15.9998C29.8332 8.63984 23.8598 2.6665 16.4998 2.6665ZM16.4998 7.99984C19.0732 7.99984 21.1665 10.0932 21.1665 12.6665C21.1665 15.2398 19.0732 17.3332 16.4998 17.3332C13.9265 17.3332 11.8332 15.2398 11.8332 12.6665C11.8332 10.0932 13.9265 7.99984 16.4998 7.99984ZM16.4998 26.6665C13.7932 26.6665 10.5932 25.5732 8.31317 22.8265C10.5665 21.0665 13.4065 19.9998 16.4998 19.9998C19.5932 19.9998 22.4332 21.0665 24.6865 22.8265C22.4065 25.5732 19.2065 26.6665 16.4998 26.6665Z" fill="#718096"/>
</g>
<defs>
<clipPath id="clip0_304_548">
<rect width="32" height="32" fill="white" transform="translate(0.5)"/>
</clipPath>
</defs>
</svg>
