<svg width="33" height="32" viewBox="0 0 33 32" fill="none" xmlns="http://www.w3.org/2000/svg">
<g clip-path="url(#clip0_237_4371)">
<path d="M13.8333 21.3333V10.6667C13.8333 9.2 15.02 8 16.5 8H28.5V6.66667C28.5 5.2 27.3 4 25.8333 4H7.16667C5.68667 4 4.5 5.2 4.5 6.66667V25.3333C4.5 26.8 5.68667 28 7.16667 28H25.8333C27.3 28 28.5 26.8 28.5 25.3333V24H16.5C15.02 24 13.8333 22.8 13.8333 21.3333ZM17.8333 10.6667C17.1 10.6667 16.5 11.2667 16.5 12V20C16.5 20.7333 17.1 21.3333 17.8333 21.3333H29.8333V10.6667H17.8333ZM21.8333 18C20.7267 18 19.8333 17.1067 19.8333 16C19.8333 14.8933 20.7267 14 21.8333 14C22.94 14 23.8333 14.8933 23.8333 16C23.8333 17.1067 22.94 18 21.8333 18Z" fill="#718096"/>
</g>
<defs>
<clipPath id="clip0_237_4371">
<rect width="32" height="32" fill="white" transform="translate(0.5)"/>
</clipPath>
</defs>
</svg>
