<svg width="32" height="32" viewBox="0 0 32 32" fill="none" xmlns="http://www.w3.org/2000/svg">
<g clip-path="url(#clip0_304_1178)">
<path d="M16 2.6665C8.63996 2.6665 2.66663 8.63984 2.66663 15.9998C2.66663 23.3598 8.63996 29.3332 16 29.3332C23.36 29.3332 29.3333 23.3598 29.3333 15.9998C29.3333 8.63984 23.36 2.6665 16 2.6665ZM16 7.99984C18.5733 7.99984 20.6666 10.0932 20.6666 12.6665C20.6666 15.2398 18.5733 17.3332 16 17.3332C13.4266 17.3332 11.3333 15.2398 11.3333 12.6665C11.3333 10.0932 13.4266 7.99984 16 7.99984ZM16 26.6665C13.2933 26.6665 10.0933 25.5732 7.81329 22.8265C10.0666 21.0665 12.9066 19.9998 16 19.9998C19.0933 19.9998 21.9333 21.0665 24.1866 22.8265C21.9066 25.5732 18.7066 26.6665 16 26.6665Z" fill="#718096"/>
</g>
<defs>
<clipPath id="clip0_304_1178">
<rect width="32" height="32" fill="white"/>
</clipPath>
</defs>
</svg>
