<svg width="1320" height="248" viewBox="0 0 1320 248" fill="none" xmlns="http://www.w3.org/2000/svg">
<mask id="mask0_304_2605" style="mask-type:alpha" maskUnits="userSpaceOnUse" x="0" y="0" width="1320" height="248">
<rect width="1320" height="248" rx="16" fill="#C4C4C4"/>
</mask>
<g mask="url(#mask0_304_2605)">
<rect width="1320" height="248" rx="16" fill="#13A7FD"/>
<path opacity="0.08" d="M835.287 206.715C717.471 122.077 555.106 220.981 426.429 154C359.479 119.15 345.901 87.7021 297.858 35.7146C267.043 2.36945 264.105 -3.43556 234.858 -27.2854C205.61 -51.1353 152.572 -78.714 152.572 -78.714V-166.143H1537.29V416.286H1206.86C1206.86 416.286 1030.37 419.035 945.858 346.857C894.455 302.958 895.597 250.041 835.287 206.715Z" fill="#0D0D0D"/>
<path opacity="0.08" d="M882.857 178.715C765.041 94.0768 602.676 214.838 474 147.857C407.049 113.007 372 -10.4998 352.5 -46.9998C341.815 -66.9998 325.5 -84.9998 299 -98.9998C272.5 -113 200.143 -106.714 200.143 -106.714V-194.143H1584.86V351.715H1275C1275 351.715 1057.71 358.715 987 308.572C925.285 264.811 943.168 222.041 882.857 178.715Z" fill="#0D0D0D"/>
</g>
</svg>
