<svg width="20" height="21" viewBox="0 0 20 21" fill="none" xmlns="http://www.w3.org/2000/svg">
<path d="M17.1816 7.79688H9.11247C8.12215 7.79688 7.31934 8.62821 7.31934 9.65371V18.0095C7.31934 19.035 8.12215 19.8663 9.11247 19.8663H17.1816C18.1719 19.8663 18.9747 19.035 18.9747 18.0095V9.65371C18.9747 8.62821 18.1719 7.79688 17.1816 7.79688Z" stroke="#222222" stroke-width="2" stroke-linecap="round" stroke-linejoin="round"/>
<path d="M3.73316 13.3673H2.8366C2.36103 13.3673 1.90493 13.1717 1.56866 12.8235C1.23238 12.4752 1.04346 12.0029 1.04346 11.5105V3.15469C1.04346 2.66223 1.23238 2.18993 1.56866 1.84171C1.90493 1.49348 2.36103 1.29785 2.8366 1.29785H10.9057C11.3813 1.29785 11.8374 1.49348 12.1737 1.84171C12.5099 2.18993 12.6989 2.66223 12.6989 3.15469V4.08311" stroke="#222222" stroke-width="2" stroke-linecap="round" stroke-linejoin="round"/>
</svg>
