<svg width="135" height="40" viewBox="0 0 135 40" fill="none" xmlns="http://www.w3.org/2000/svg">
<path d="M124.249 0.00013H10.7566C10.3429 0.00013 9.9342 0.00013 9.5216 0.00213C9.17621 0.00413 8.83358 0.00994 8.48488 0.01483C7.72733 0.0227318 6.97157 0.0818063 6.22416 0.19154C5.4778 0.303663 4.75482 0.515046 4.07967 0.81854C3.40534 1.1246 2.7892 1.5223 2.25357 1.9972C1.71514 2.47077 1.26632 3.01815 0.924356 3.61829C0.581453 4.21724 0.343683 4.85907 0.219258 5.52161C0.0936495 6.18332 0.0260586 6.85265 0.0170916 7.52361C0.00662229 7.83021 0.00551669 8.13783 0 8.44447V31.5587C0.00551669 31.8692 0.00662229 32.17 0.0170916 32.4806C0.0260614 33.1516 0.0936522 33.8209 0.219258 34.4825C0.343339 35.1455 0.581124 35.7877 0.924356 36.3868C1.26616 36.985 1.71505 37.5302 2.25357 38.0011C2.78717 38.4781 3.40371 38.8761 4.07967 39.1798C4.75481 39.4841 5.47772 39.6968 6.22416 39.8106C6.9717 39.9195 7.72738 39.9786 8.48488 39.9874C8.83358 39.9942 9.17621 39.9981 9.5216 39.9981C9.93419 40.0001 10.343 40.0001 10.7566 40.0001H124.249C124.655 40.0001 125.067 40.0001 125.472 39.9981C125.816 39.9981 126.169 39.9942 126.512 39.9874C127.268 39.9791 128.023 39.92 128.769 39.8106C129.518 39.696 130.243 39.4834 130.921 39.1798C131.597 38.8759 132.213 38.478 132.746 38.0011C133.283 37.5284 133.733 36.9836 134.079 36.3868C134.42 35.7872 134.655 35.1451 134.777 34.4825C134.903 33.8208 134.973 33.1516 134.987 32.4806C134.991 32.17 134.991 31.8692 134.991 31.5587C135 31.1954 135 30.8341 135 30.4649V9.53626C135 9.17005 135 8.80677 134.991 8.44447C134.991 8.13783 134.991 7.83021 134.987 7.52357C134.973 6.85255 134.903 6.18337 134.777 5.52157C134.655 4.85941 134.419 4.21763 134.079 3.61825C133.383 2.41533 132.278 1.43616 130.921 0.81845C130.243 0.515697 129.518 0.30437 128.769 0.19145C128.023 0.0812328 127.269 0.0221378 126.512 0.01469C126.169 0.00981 125.816 0.00395 125.472 0.002C125.067 0 124.655 0 124.249 0V0.00013Z" fill="#A6A6A6"/>
<path d="M9.43001 39.1281C9.08569 39.1281 8.74969 39.1242 8.40807 39.1174C7.70037 39.1093 6.99433 39.0547 6.29574 38.9543C5.64433 38.855 5.0133 38.6703 4.42345 38.4063C3.839 38.1444 3.30594 37.8011 2.84469 37.3895C2.37676 36.9826 1.98718 36.5108 1.6914 35.9927C1.39236 35.4711 1.18541 34.9121 1.07775 34.3351C0.961494 33.7151 0.898592 33.0882 0.889592 32.4597C0.882427 32.2488 0.873047 31.5464 0.873047 31.5464V8.44104C0.873047 8.44104 0.883037 7.74949 0.889648 7.54631C0.898266 6.91886 0.960802 6.2929 1.07671 5.67385C1.18457 5.09525 1.39168 4.53463 1.69088 4.0114C1.98557 3.49361 2.37299 3.02143 2.8381 2.61316C3.30269 2.20102 3.83745 1.85593 4.42289 1.59048C5.01139 1.32731 5.64123 1.14391 6.29132 1.04642C6.99221 0.944969 7.7007 0.890117 8.41085 0.88233L9.43056 0.870117H125.57L126.602 0.88282C127.306 0.890221 128.008 0.944583 128.702 1.04544C129.359 1.14415 129.995 1.32883 130.59 1.59341C131.763 2.12837 132.718 2.97472 133.32 4.01384C133.614 4.53346 133.818 5.08951 133.924 5.66311C134.042 6.28724 134.107 6.91812 134.121 7.55071C134.124 7.83397 134.124 8.13824 134.124 8.44104C134.133 8.81612 134.133 9.17312 134.133 9.53306V30.4661C134.133 30.8295 134.133 31.1841 134.124 31.5415C134.124 31.8668 134.124 32.1648 134.12 32.4714C134.107 33.0927 134.042 33.7123 133.927 34.3253C133.821 34.9065 133.615 35.4699 133.316 35.9957C133.018 36.5082 132.631 36.9759 132.169 37.3817C131.707 37.7955 131.173 38.1409 130.587 38.4044C129.994 38.6704 129.358 38.8558 128.702 38.9543C128.004 39.0553 127.297 39.1098 126.59 39.1174C126.259 39.1242 125.912 39.1281 125.576 39.1281L124.35 39.1301L9.43001 39.1281Z" fill="white"/>
<path d="M32.7973 20.3013C32.8081 19.4666 33.0298 18.6483 33.4418 17.9223C33.8538 17.1964 34.4428 16.5864 35.1539 16.1492C34.7021 15.5041 34.1062 14.9731 33.4134 14.5986C32.7205 14.224 31.9499 14.0162 31.1627 13.9916C29.4835 13.8153 27.8555 14.9964 26.9998 14.9964C26.1275 14.9964 24.81 14.0091 23.3913 14.0383C22.4736 14.0679 21.5793 14.3348 20.7954 14.8128C20.0115 15.2909 19.3649 15.9638 18.9184 16.7661C16.9844 20.1145 18.427 25.0356 20.2796 27.7422C21.2065 29.0676 22.2898 30.548 23.7072 30.4955C25.0943 30.438 25.6123 29.611 27.2866 29.611C28.9454 29.611 29.4314 30.4955 30.8776 30.4621C32.366 30.438 33.3038 29.1309 34.1981 27.793C34.8641 26.8486 35.3766 25.8049 35.7166 24.7005C34.8518 24.3347 34.1139 23.7226 33.5948 22.9403C33.0757 22.158 32.7983 21.2402 32.7973 20.3013Z" fill="#0D0D0D"/>
<path d="M30.0659 12.2113C30.8774 11.2371 31.2772 9.98494 31.1804 8.7207C29.9406 8.85092 28.7953 9.44348 27.9728 10.3803C27.5707 10.838 27.2627 11.3704 27.0664 11.9472C26.8702 12.524 26.7896 13.1337 26.8291 13.7417C27.4493 13.7481 28.0628 13.6137 28.6234 13.3486C29.1841 13.0835 29.6773 12.6946 30.0659 12.2113Z" fill="#0D0D0D"/>
<path d="M50.3306 27.1397H45.5972L44.4604 30.4961H42.4556L46.939 18.0781H49.022L53.5054 30.4961H51.4663L50.3306 27.1397ZM46.0874 25.5908H49.8394L47.9898 20.1436H47.938L46.0874 25.5908Z" fill="#0D0D0D"/>
<path d="M63.188 25.9695C63.188 28.7829 61.6822 30.5905 59.4097 30.5905C58.834 30.6207 58.2615 30.4881 57.7578 30.2079C57.254 29.9278 56.8392 29.5114 56.5611 29.0065H56.5181V33.4909H54.6597V21.4421H56.4585V22.948H56.4927C56.7837 22.4455 57.2054 22.0313 57.713 21.7495C58.2207 21.4676 58.7952 21.3287 59.3755 21.3474C61.6733 21.3474 63.188 23.1638 63.188 25.9695ZM61.2779 25.9695C61.2779 24.1365 60.3306 22.9314 58.8853 22.9314C57.4654 22.9314 56.5103 24.1618 56.5103 25.9695C56.5103 27.7937 57.4654 29.0154 58.8853 29.0154C60.3306 29.0154 61.2779 27.8191 61.2779 25.9695Z" fill="#0D0D0D"/>
<path d="M73.1529 25.9694C73.1529 28.7829 71.647 30.5905 69.3745 30.5905C68.7989 30.6206 68.2264 30.488 67.7226 30.2079C67.2188 29.9278 66.8041 29.5114 66.5259 29.0065H66.4829V33.4909H64.6245V21.4421H66.4233V22.948H66.4575C66.7485 22.4455 67.1702 22.0313 67.6778 21.7495C68.1855 21.4676 68.76 21.3287 69.3403 21.3474C71.6382 21.3474 73.1529 23.1638 73.1529 25.9694ZM71.2427 25.9694C71.2427 24.1364 70.2954 22.9314 68.8501 22.9314C67.4302 22.9314 66.4751 24.1618 66.4751 25.9694C66.4751 27.7937 67.4302 29.0153 68.8501 29.0153C70.2954 29.0153 71.2427 27.8191 71.2427 25.9694H71.2427Z" fill="#0D0D0D"/>
<path d="M79.7388 27.0362C79.8765 28.2676 81.0728 29.0762 82.7076 29.0762C84.274 29.0762 85.4009 28.2676 85.4009 27.1572C85.4009 26.1934 84.7212 25.6162 83.1118 25.2207L81.5025 24.833C79.2222 24.2822 78.1636 23.2158 78.1636 21.4854C78.1636 19.3428 80.0308 17.8711 82.6822 17.8711C85.3062 17.8711 87.105 19.3428 87.1656 21.4854H85.2896C85.1773 20.2461 84.1528 19.4981 82.6558 19.4981C81.1587 19.4981 80.1343 20.2549 80.1343 21.3565C80.1343 22.2344 80.7886 22.751 82.3892 23.1465L83.7573 23.4824C86.3052 24.0849 87.3638 25.1084 87.3638 26.9248C87.3638 29.248 85.5132 30.7031 82.5698 30.7031C79.8159 30.7031 77.9565 29.2822 77.8364 27.0361L79.7388 27.0362Z" fill="#0D0D0D"/>
<path d="M91.3745 19.2998V21.4424H93.0962V22.9141H91.3745V27.9053C91.3745 28.6807 91.7192 29.042 92.4761 29.042C92.6805 29.0384 92.8845 29.0241 93.0874 28.999V30.4619C92.7471 30.5255 92.4013 30.5543 92.0552 30.5478C90.2222 30.5478 89.5073 29.8593 89.5073 28.1035V22.9141H88.1909V21.4424H89.5073V19.2998H91.3745Z" fill="#0D0D0D"/>
<path d="M94.0933 25.9697C94.0933 23.1211 95.771 21.3311 98.3872 21.3311C101.012 21.3311 102.682 23.1211 102.682 25.9697C102.682 28.8262 101.021 30.6084 98.3872 30.6084C95.7543 30.6084 94.0933 28.8262 94.0933 25.9697ZM100.789 25.9697C100.789 24.0156 99.8931 22.8623 98.3872 22.8623C96.8813 22.8623 95.9868 24.0244 95.9868 25.9697C95.9868 27.9316 96.8813 29.0762 98.3872 29.0762C99.8931 29.0762 100.789 27.9316 100.789 25.9697H100.789Z" fill="#0D0D0D"/>
<path d="M104.214 21.442H105.987V22.983H106.03C106.15 22.5017 106.432 22.0764 106.828 21.7785C107.225 21.4806 107.712 21.3284 108.208 21.3473C108.422 21.3465 108.635 21.3698 108.844 21.4166V23.1549C108.574 23.0723 108.292 23.0343 108.009 23.0426C107.739 23.0316 107.47 23.0792 107.22 23.1821C106.97 23.285 106.746 23.4408 106.562 23.6386C106.378 23.8365 106.239 24.0719 106.154 24.3286C106.07 24.5852 106.042 24.8571 106.073 25.1256V30.4957H104.214L104.214 21.442Z" fill="#0D0D0D"/>
<path d="M117.413 27.8369C117.163 29.4805 115.562 30.6084 113.514 30.6084C110.88 30.6084 109.246 28.8437 109.246 26.0127C109.246 23.1729 110.889 21.3311 113.436 21.3311C115.941 21.3311 117.516 23.0518 117.516 25.7969V26.4336H111.122V26.5459C111.092 26.8791 111.134 27.2148 111.244 27.5306C111.354 27.8464 111.53 28.1352 111.761 28.3778C111.991 28.6203 112.27 28.8111 112.58 28.9374C112.89 29.0637 113.223 29.1226 113.557 29.1103C113.996 29.1515 114.437 29.0498 114.814 28.8203C115.19 28.5909 115.483 28.246 115.648 27.8369L117.413 27.8369ZM111.13 25.1348H115.657C115.673 24.8352 115.628 24.5354 115.523 24.2541C115.419 23.9729 115.257 23.7164 115.048 23.5006C114.84 23.2849 114.589 23.1145 114.312 23.0003C114.034 22.8861 113.736 22.8305 113.436 22.8369C113.133 22.8351 112.833 22.8933 112.553 23.008C112.273 23.1227 112.019 23.2918 111.804 23.5054C111.59 23.7191 111.42 23.973 111.304 24.2527C111.189 24.5323 111.13 24.8321 111.13 25.1348V25.1348Z" fill="#0D0D0D"/>
<path d="M45.8545 8.73138C46.2441 8.70342 46.6351 8.76228 46.9992 8.90371C47.3633 9.04515 47.6915 9.26563 47.9601 9.54925C48.2286 9.83288 48.4309 10.1726 48.5523 10.5438C48.6737 10.9151 48.7112 11.3087 48.6621 11.6962C48.6621 13.6025 47.6318 14.6982 45.8545 14.6982H43.6992V8.73138H45.8545ZM44.626 13.8544H45.751C46.0294 13.871 46.308 13.8254 46.5665 13.7208C46.8251 13.6161 47.057 13.4552 47.2455 13.2496C47.434 13.0441 47.5743 12.7991 47.6562 12.5324C47.738 12.2658 47.7594 11.9843 47.7187 11.7084C47.7564 11.4335 47.7329 11.1538 47.6498 10.8891C47.5667 10.6244 47.426 10.3814 47.238 10.1775C47.0499 9.97358 46.8191 9.81378 46.562 9.70954C46.3049 9.6053 46.028 9.55922 45.751 9.57459H44.626V13.8544Z" fill="#0D0D0D"/>
<path d="M49.7088 12.4448C49.6805 12.1489 49.7143 11.8503 49.8082 11.5682C49.902 11.2862 50.0538 11.0268 50.2537 10.8068C50.4536 10.5868 50.6974 10.4111 50.9692 10.2908C51.2411 10.1705 51.535 10.1084 51.8323 10.1084C52.1296 10.1084 52.4236 10.1705 52.6954 10.2908C52.9673 10.4111 53.211 10.5868 53.4109 10.8068C53.6109 11.0268 53.7626 11.2862 53.8565 11.5682C53.9503 11.8503 53.9842 12.1489 53.9558 12.4448C53.9847 12.741 53.9512 13.04 53.8577 13.3225C53.7641 13.605 53.6124 13.8648 53.4124 14.0853C53.2124 14.3057 52.9685 14.4818 52.6964 14.6023C52.4243 14.7229 52.1299 14.7851 51.8323 14.7851C51.5347 14.7851 51.2404 14.7229 50.9682 14.6023C50.6961 14.4818 50.4522 14.3057 50.2522 14.0853C50.0522 13.8648 49.9006 13.605 49.807 13.3225C49.7134 13.04 49.6799 12.741 49.7088 12.4448ZM53.0418 12.4448C53.0418 11.4687 52.6033 10.8979 51.8338 10.8979C51.0613 10.8979 50.6268 11.4687 50.6268 12.4448C50.6268 13.4287 51.0613 13.9951 51.8338 13.9951C52.6033 13.9951 53.0418 13.4248 53.0418 12.4448H53.0418Z" fill="#0D0D0D"/>
<path d="M59.6016 14.6982H58.6797L57.749 11.3818H57.6787L56.752 14.6982H55.8389L54.5977 10.1953H55.499L56.3057 13.6313H56.3721L57.2979 10.1953H58.1504L59.0762 13.6313H59.1465L59.9492 10.1953H60.8379L59.6016 14.6982Z" fill="#0D0D0D"/>
<path d="M61.8818 10.1949H62.7373V10.9102H62.8037C62.9164 10.6533 63.1064 10.4379 63.3472 10.2941C63.5881 10.1503 63.8679 10.0852 64.1475 10.1079C64.3666 10.0915 64.5866 10.1245 64.7912 10.2046C64.9958 10.2847 65.1797 10.4098 65.3294 10.5707C65.4791 10.7315 65.5907 10.924 65.6559 11.1338C65.7211 11.3436 65.7382 11.5654 65.7061 11.7827V14.6977H64.8174V12.0059C64.8174 11.2823 64.5029 10.9224 63.8457 10.9224C63.6969 10.9155 63.5484 10.9408 63.4104 10.9966C63.2723 11.0525 63.148 11.1375 63.0459 11.2459C62.9437 11.3543 62.8663 11.4834 62.8187 11.6246C62.7712 11.7657 62.7547 11.9154 62.7705 12.0635V14.6978H61.8818L61.8818 10.1949Z" fill="#0D0D0D"/>
<path d="M67.1221 8.4375H68.0107V14.6982H67.1221V8.4375Z" fill="#0D0D0D"/>
<path d="M69.2459 12.4449C69.2176 12.1489 69.2514 11.8503 69.3453 11.5683C69.4392 11.2862 69.591 11.0268 69.7909 10.8068C69.9909 10.5869 70.2346 10.4111 70.5065 10.2908C70.7783 10.1705 71.0724 10.1084 71.3696 10.1084C71.6669 10.1084 71.9609 10.1705 72.2328 10.2908C72.5047 10.4111 72.7484 10.5869 72.9484 10.8068C73.1483 11.0268 73.3001 11.2862 73.394 11.5683C73.4878 11.8503 73.5217 12.1489 73.4934 12.4449C73.5222 12.7411 73.4888 13.0401 73.3951 13.3226C73.3015 13.6051 73.1498 13.8649 72.9498 14.0853C72.7498 14.3058 72.5059 14.4819 72.2337 14.6024C71.9616 14.7229 71.6673 14.7852 71.3696 14.7852C71.072 14.7852 70.7777 14.7229 70.5055 14.6024C70.2334 14.4819 69.9895 14.3058 69.7895 14.0853C69.5895 13.8649 69.4378 13.6051 69.3442 13.3226C69.2505 13.0401 69.2171 12.7411 69.2459 12.4449ZM72.5789 12.4449C72.5789 11.4688 72.1404 10.898 71.3709 10.898C70.5984 10.898 70.1639 11.4688 70.1639 12.4449C70.1639 13.4288 70.5984 13.9952 71.3709 13.9952C72.1404 13.9952 72.5789 13.4248 72.5789 12.4449H72.5789Z" fill="#0D0D0D"/>
<path d="M74.4292 13.4248C74.4292 12.6142 75.0327 12.147 76.104 12.0806L77.3237 12.0102V11.6216C77.3237 11.146 77.0093 10.8774 76.4019 10.8774C75.9058 10.8774 75.562 11.0596 75.4634 11.3779H74.603C74.6938 10.6045 75.4214 10.1084 76.4429 10.1084C77.5718 10.1084 78.2085 10.6704 78.2085 11.6216V14.6982H77.353V14.0654H77.2827C77.14 14.2924 76.9396 14.4775 76.702 14.6017C76.4643 14.7259 76.198 14.7848 75.9302 14.7724C75.7411 14.7921 75.5501 14.7719 75.3693 14.7132C75.1886 14.6545 75.0221 14.5586 74.8807 14.4316C74.7393 14.3047 74.626 14.1495 74.5483 13.9761C74.4705 13.8026 74.4299 13.6149 74.4292 13.4248ZM77.3237 13.04V12.6636L76.2241 12.7339C75.604 12.7754 75.3227 12.9863 75.3227 13.3833C75.3227 13.7886 75.6743 14.0244 76.1577 14.0244C76.2994 14.0387 76.4425 14.0244 76.5785 13.9823C76.7145 13.9403 76.8406 13.8712 76.9494 13.7794C77.0582 13.6876 77.1474 13.5748 77.2117 13.4477C77.276 13.3207 77.3141 13.1821 77.3237 13.04Z" fill="#0D0D0D"/>
<path d="M79.3765 12.4448C79.3765 11.022 80.1079 10.1206 81.2456 10.1206C81.527 10.1077 81.8063 10.1751 82.0508 10.315C82.2954 10.4548 82.495 10.6615 82.6265 10.9106H82.6929V8.4375H83.5815V14.6982H82.73V13.9868H82.6597C82.5181 14.2343 82.3115 14.4383 82.0622 14.5768C81.813 14.7153 81.5306 14.783 81.2456 14.7724C80.1001 14.7725 79.3765 13.8711 79.3765 12.4448ZM80.2945 12.4448C80.2945 13.3999 80.7447 13.9746 81.4976 13.9746C82.2466 13.9746 82.7095 13.3916 82.7095 12.4487C82.7095 11.5103 82.2417 10.919 81.4976 10.919C80.7495 10.919 80.2944 11.4976 80.2944 12.4448H80.2945Z" fill="#0D0D0D"/>
<path d="M87.2581 12.4448C87.2298 12.1489 87.2636 11.8503 87.3575 11.5682C87.4513 11.2862 87.6031 11.0268 87.803 10.8068C88.003 10.5868 88.2467 10.4111 88.5185 10.2908C88.7904 10.1705 89.0844 10.1084 89.3816 10.1084C89.6789 10.1084 89.9729 10.1705 90.2447 10.2908C90.5166 10.4111 90.7603 10.5868 90.9602 10.8068C91.1602 11.0268 91.3119 11.2862 91.4058 11.5682C91.4996 11.8503 91.5335 12.1489 91.5052 12.4448C91.534 12.741 91.5006 13.04 91.407 13.3225C91.3134 13.605 91.1617 13.8648 90.9617 14.0853C90.7617 14.3057 90.5178 14.4818 90.2457 14.6023C89.9736 14.7229 89.6793 14.7851 89.3816 14.7851C89.084 14.7851 88.7897 14.7229 88.5175 14.6023C88.2454 14.4818 88.0015 14.3057 87.8015 14.0853C87.6015 13.8648 87.4499 13.605 87.3563 13.3225C87.2627 13.04 87.2292 12.741 87.2581 12.4448ZM90.5911 12.4448C90.5911 11.4687 90.1526 10.8979 89.3831 10.8979C88.6106 10.8979 88.1761 11.4687 88.1761 12.4448C88.1761 13.4287 88.6107 13.9951 89.3831 13.9951C90.1526 13.9951 90.5911 13.4248 90.5911 12.4448Z" fill="#0D0D0D"/>
<path d="M92.6978 10.1949H93.5532V10.9102H93.6196C93.7323 10.6533 93.9223 10.4379 94.1632 10.2941C94.404 10.1503 94.6838 10.0852 94.9634 10.1079C95.1825 10.0915 95.4025 10.1245 95.6071 10.2046C95.8117 10.2847 95.9956 10.4098 96.1453 10.5707C96.295 10.7315 96.4066 10.924 96.4718 11.1338C96.537 11.3436 96.5541 11.5654 96.522 11.7827V14.6977H95.6333V12.0059C95.6333 11.2823 95.3189 10.9224 94.6616 10.9224C94.5129 10.9155 94.3644 10.9408 94.2263 10.9966C94.0883 11.0525 93.9639 11.1375 93.8618 11.2459C93.7597 11.3543 93.6822 11.4834 93.6346 11.6246C93.5871 11.7657 93.5707 11.9154 93.5864 12.0635V14.6978H92.6978V10.1949Z" fill="#0D0D0D"/>
<path d="M101.543 9.07422V10.2158H102.519V10.9644H101.543V13.2798C101.543 13.7515 101.738 13.958 102.18 13.958C102.293 13.9576 102.407 13.9508 102.519 13.9375V14.6777C102.359 14.7063 102.198 14.7215 102.036 14.7231C101.047 14.7231 100.654 14.3755 100.654 13.5073V10.9643H99.939V10.2158H100.654V9.07422H101.543Z" fill="#0D0D0D"/>
<path d="M103.733 8.4375H104.614V10.919H104.684C104.802 10.6596 104.997 10.443 105.243 10.2987C105.489 10.1543 105.773 10.0893 106.057 10.1123C106.275 10.1004 106.493 10.1368 106.695 10.2189C106.897 10.3009 107.079 10.4266 107.227 10.5869C107.375 10.7473 107.486 10.9383 107.552 11.1465C107.618 11.3546 107.637 11.5747 107.608 11.791V14.6982H106.718V12.0103C106.718 11.291 106.383 10.9268 105.755 10.9268C105.603 10.9142 105.449 10.9352 105.305 10.9883C105.161 11.0413 105.031 11.1252 104.923 11.2339C104.815 11.3426 104.732 11.4737 104.68 11.6178C104.628 11.7619 104.608 11.9157 104.622 12.0683V14.6982H103.733L103.733 8.4375Z" fill="#0D0D0D"/>
<path d="M112.79 13.4825C112.669 13.894 112.407 14.25 112.051 14.4882C111.694 14.7263 111.265 14.8315 110.839 14.7852C110.542 14.7931 110.247 14.7362 109.975 14.6187C109.702 14.5012 109.458 14.3258 109.26 14.1046C109.063 13.8835 108.915 13.6219 108.828 13.3381C108.742 13.0543 108.718 12.755 108.758 12.461C108.719 12.1661 108.743 11.8662 108.83 11.5815C108.916 11.2969 109.063 11.0341 109.26 10.811C109.457 10.5879 109.699 10.4098 109.971 10.2886C110.243 10.1674 110.537 10.1059 110.835 10.1085C112.088 10.1085 112.843 10.9645 112.843 12.3785V12.6886H109.664V12.7384C109.65 12.9036 109.671 13.0699 109.725 13.2267C109.779 13.3834 109.865 13.5271 109.978 13.6486C110.091 13.7701 110.228 13.8666 110.38 13.932C110.533 13.9974 110.697 14.0302 110.863 14.0284C111.076 14.0539 111.291 14.0156 111.482 13.9184C111.672 13.8212 111.83 13.6694 111.934 13.4825L112.79 13.4825ZM109.664 12.0313H111.938C111.949 11.8802 111.929 11.7284 111.878 11.5857C111.827 11.443 111.747 11.3125 111.642 11.2026C111.538 11.0928 111.412 11.006 111.272 10.9478C111.132 10.8896 110.981 10.8614 110.83 10.8648C110.676 10.8629 110.523 10.8918 110.381 10.9497C110.239 11.0076 110.109 11.0935 110.001 11.2022C109.892 11.3109 109.806 11.4403 109.748 11.5827C109.691 11.7251 109.662 11.8776 109.664 12.0313H109.664Z" fill="#0D0D0D"/>
</svg>
