<svg width="17" height="16" viewBox="0 0 17 16" fill="none" xmlns="http://www.w3.org/2000/svg">
<g clip-path="url(#clip0_204_4988)">
<path d="M1.21243 14.2932C1.02492 14.4808 0.919615 14.7352 0.919678 15.0004C0.91974 15.2657 1.02517 15.52 1.21276 15.7075C1.40036 15.895 1.65476 16.0003 1.92 16.0003C2.18524 16.0002 2.43959 15.8948 2.6271 15.7072L8.80176 9.53319C8.81724 9.51767 8.83564 9.50535 8.85588 9.49695C8.87613 9.48855 8.89784 9.48423 8.91976 9.48423C8.94168 9.48423 8.96339 9.48855 8.98364 9.49695C9.00389 9.50535 9.02228 9.51767 9.03776 9.53319L15.2124 15.7085C15.3053 15.8014 15.4155 15.8751 15.5368 15.9254C15.6582 15.9757 15.7882 16.0016 15.9195 16.0016C16.0509 16.0016 16.1809 15.9758 16.3023 15.9256C16.4236 15.8753 16.5339 15.8017 16.6268 15.7089C16.7197 15.616 16.7933 15.5058 16.8436 15.3845C16.8939 15.2631 16.9198 15.1331 16.9198 15.0018C16.9199 14.8704 16.894 14.7404 16.8438 14.619C16.7936 14.4977 16.7199 14.3874 16.6271 14.2945L10.4531 8.11786C10.4376 8.10238 10.4253 8.08398 10.4169 8.06374C10.4085 8.04349 10.4041 8.02178 10.4041 7.99986C10.4041 7.97793 10.4085 7.95623 10.4169 7.93598C10.4253 7.91573 10.4376 7.89734 10.4531 7.88186L16.6284 1.70719C16.8159 1.51942 16.9212 1.26485 16.921 0.999483C16.9208 0.734119 16.8152 0.479698 16.6274 0.29219C16.4397 0.104682 16.1851 -0.000553494 15.9197 -0.000365961C15.6544 -0.000178428 15.3999 0.105417 15.2124 0.29319L9.03776 6.46652C9.02228 6.48204 9.00389 6.49436 8.98364 6.50276C8.96339 6.51116 8.94168 6.51549 8.91976 6.51549C8.89784 6.51549 8.87613 6.51116 8.85588 6.50276C8.83564 6.49436 8.81724 6.48204 8.80176 6.46652L2.6271 0.29319C2.53425 0.200302 2.42402 0.12661 2.3027 0.0763225C2.18137 0.026035 2.05133 0.000136378 1.92 0.000105426C1.65476 4.29134e-05 1.40036 0.105349 1.21276 0.292857C1.02517 0.480365 0.91974 0.734715 0.919678 0.999954C0.919615 1.26519 1.02492 1.51959 1.21243 1.70719L7.38643 7.88186C7.40195 7.89734 7.41426 7.91573 7.42267 7.93598C7.43107 7.95623 7.43539 7.97793 7.43539 7.99986C7.43539 8.02178 7.43107 8.04349 7.42267 8.06374C7.41426 8.08398 7.40195 8.10238 7.38643 8.11786L1.21243 14.2932Z" fill="#CBD5E0"/>
</g>
<defs>
<clipPath id="clip0_204_4988">
<rect width="16" height="16" fill="white" transform="translate(0.919922)"/>
</clipPath>
</defs>
</svg>
