<svg width="16" height="17" viewBox="0 0 16 17" fill="none" xmlns="http://www.w3.org/2000/svg">
<path d="M14.3888 7.66659H8.83325V2.11103C8.83325 1.95756 8.70895 1.83325 8.55547 1.83325H7.44436C7.29089 1.83325 7.16659 1.95756 7.16659 2.11103V7.66659H1.61103C1.45756 7.66659 1.33325 7.79089 1.33325 7.94436V9.05547C1.33325 9.20895 1.45756 9.33325 1.61103 9.33325H7.16659V14.8888C7.16659 15.0423 7.29089 15.1666 7.44436 15.1666H8.55547C8.70895 15.1666 8.83325 15.0423 8.83325 14.8888V9.33325H14.3888C14.5423 9.33325 14.6666 9.20895 14.6666 9.05547V7.94436C14.6666 7.79089 14.5423 7.66659 14.3888 7.66659Z" fill="black"/>
</svg>
