<svg width="16" height="16" viewBox="0 0 16 16" fill="none" xmlns="http://www.w3.org/2000/svg">
<g clip-path="url(#clip0_204_4986)">
<path d="M0.292507 14.2933C0.104999 14.4808 -0.000306608 14.7352 -0.000244092 15.0005C-0.000181576 15.2657 0.105244 15.5201 0.292841 15.7076C0.480437 15.8951 0.734837 16.0004 1.00008 16.0003C1.26532 16.0003 1.51967 15.8948 1.70717 15.7073L7.88184 9.53325C7.89732 9.51773 7.91571 9.50542 7.93596 9.49701C7.95621 9.48861 7.97792 9.48429 7.99984 9.48429C8.02176 9.48429 8.04347 9.48861 8.06372 9.49701C8.08397 9.50542 8.10236 9.51773 8.11784 9.53325L14.2925 15.7086C14.3854 15.8015 14.4956 15.8752 14.6169 15.9255C14.7382 15.9757 14.8683 16.0016 14.9996 16.0017C15.1309 16.0017 15.261 15.9759 15.3823 15.9256C15.5037 15.8754 15.614 15.8018 15.7068 15.7089C15.7997 15.6161 15.8734 15.5058 15.9237 15.3845C15.974 15.2632 15.9999 15.1332 15.9999 15.0018C16 14.8705 15.9741 14.7404 15.9239 14.6191C15.8737 14.4977 15.8 14.3875 15.7072 14.2946L9.53317 8.11792C9.51765 8.10244 9.50534 8.08404 9.49694 8.0638C9.48853 8.04355 9.48421 8.02184 9.48421 7.99992C9.48421 7.978 9.48853 7.95629 9.49694 7.93604C9.50534 7.91579 9.51765 7.8974 9.53317 7.88192L15.7085 1.70725C15.896 1.51948 16.0013 1.26491 16.0011 0.999544C16.0009 0.73418 15.8953 0.479759 15.7075 0.292251C15.5197 0.104743 15.2652 -0.000492459 14.9998 -0.000304926C14.7344 -0.000117393 14.48 0.105478 14.2925 0.293251L8.11784 6.46658C8.10236 6.48211 8.08397 6.49442 8.06372 6.50282C8.04347 6.51122 8.02176 6.51555 7.99984 6.51555C7.97792 6.51555 7.95621 6.51122 7.93596 6.50282C7.91571 6.49442 7.89732 6.48211 7.88184 6.46658L1.70717 0.293251C1.61433 0.200363 1.5041 0.126671 1.38277 0.0763836C1.26145 0.026096 1.13141 0.000197414 1.00008 0.000166461C0.734837 0.000103949 0.480437 0.10541 0.292841 0.292918C0.105244 0.480426 -0.000181601 0.734776 -0.000244113 1.00002C-0.000306625 1.26525 0.104999 1.51965 0.292507 1.70725L6.46651 7.88192C6.48203 7.8974 6.49434 7.91579 6.50274 7.93604C6.51115 7.95629 6.51547 7.978 6.51547 7.99992C6.51547 8.02184 6.51115 8.04355 6.50274 8.0638C6.49434 8.08404 6.48203 8.10244 6.46651 8.11792L0.292507 14.2933Z" fill="#CBD5E0"/>
</g>
<defs>
<clipPath id="clip0_204_4986">
<rect width="16" height="16" fill="white"/>
</clipPath>
</defs>
</svg>
