<svg width="16" height="17" viewBox="0 0 16 17" fill="none" xmlns="http://www.w3.org/2000/svg">
<path d="M14.3888 7.66683H8.83325V2.11127C8.83325 1.9578 8.70895 1.8335 8.55547 1.8335H7.44436C7.29089 1.8335 7.16659 1.9578 7.16659 2.11127V7.66683H1.61103C1.45756 7.66683 1.33325 7.79114 1.33325 7.94461V9.05572C1.33325 9.20919 1.45756 9.3335 1.61103 9.3335H7.16659V14.8891C7.16659 15.0425 7.29089 15.1668 7.44436 15.1668H8.55547C8.70895 15.1668 8.83325 15.0425 8.83325 14.8891V9.3335H14.3888C14.5423 9.3335 14.6666 9.20919 14.6666 9.05572V7.94461C14.6666 7.79114 14.5423 7.66683 14.3888 7.66683Z" fill="white"/>
</svg>
