<svg width="17" height="16" viewBox="0 0 17 16" fill="none" xmlns="http://www.w3.org/2000/svg">
<g clip-path="url(#clip0_204_4987)">
<path d="M0.752468 14.2932C0.56496 14.4808 0.459654 14.7352 0.459717 15.0004C0.459779 15.2657 0.565205 15.52 0.752802 15.7075C0.940398 15.895 1.1948 16.0003 1.46004 16.0003C1.72528 16.0002 1.97963 15.8948 2.16714 15.7072L8.3418 9.53319C8.35728 9.51767 8.37568 9.50535 8.39592 9.49695C8.41617 9.48855 8.43788 9.48423 8.4598 9.48423C8.48172 9.48423 8.50343 9.48855 8.52368 9.49695C8.54393 9.50535 8.56232 9.51767 8.5778 9.53319L14.7525 15.7085C14.8453 15.8014 14.9555 15.8751 15.0769 15.9254C15.1982 15.9757 15.3282 16.0016 15.4596 16.0016C15.5909 16.0016 15.721 15.9758 15.8423 15.9256C15.9636 15.8753 16.0739 15.8017 16.1668 15.7089C16.2597 15.616 16.3334 15.5058 16.3837 15.3845C16.434 15.2631 16.4599 15.1331 16.4599 15.0018C16.4599 14.8704 16.4341 14.7404 16.3839 14.619C16.3336 14.4977 16.26 14.3874 16.1671 14.2945L9.99314 8.11786C9.97761 8.10238 9.9653 8.08398 9.9569 8.06374C9.94849 8.04349 9.94417 8.02178 9.94417 7.99986C9.94417 7.97793 9.94849 7.95623 9.9569 7.93598C9.9653 7.91573 9.97761 7.89734 9.99314 7.88186L16.1685 1.70719C16.356 1.51942 16.4612 1.26485 16.461 0.999483C16.4608 0.734119 16.3552 0.479698 16.1675 0.29219C15.9797 0.104682 15.7251 -0.000553494 15.4598 -0.000365961C15.1944 -0.000178428 14.94 0.105417 14.7525 0.29319L8.5778 6.46652C8.56232 6.48204 8.54393 6.49436 8.52368 6.50276C8.50343 6.51116 8.48172 6.51549 8.4598 6.51549C8.43788 6.51549 8.41617 6.51116 8.39592 6.50276C8.37568 6.49436 8.35728 6.48204 8.3418 6.46652L2.16714 0.29319C2.07429 0.200302 1.96406 0.12661 1.84274 0.0763225C1.72141 0.026035 1.59137 0.000136378 1.46004 0.000105426C1.1948 4.29134e-05 0.940398 0.105349 0.752802 0.292857C0.565205 0.480365 0.459779 0.734715 0.459717 0.999954C0.459654 1.26519 0.56496 1.51959 0.752468 1.70719L6.92647 7.88186C6.94199 7.89734 6.9543 7.91573 6.96271 7.93598C6.97111 7.95623 6.97543 7.97793 6.97543 7.99986C6.97543 8.02178 6.97111 8.04349 6.96271 8.06374C6.9543 8.08398 6.94199 8.10238 6.92647 8.11786L0.752468 14.2932Z" fill="#CBD5E0"/>
</g>
<defs>
<clipPath id="clip0_204_4987">
<rect width="16" height="16" fill="white" transform="translate(0.459961)"/>
</clipPath>
</defs>
</svg>
