<svg width="110" height="26" viewBox="0 0 110 26" fill="none" xmlns="http://www.w3.org/2000/svg">
<path d="M20.5401 0.554688V25.0859H16.0556L5.37185 9.64607H5.19199V25.0859H0V0.554688H4.55648L15.1563 15.9825H15.3721V0.554688H20.5401Z" fill="url(#paint0_linear_239_2448)"/>
<path d="M24.8298 25.0859V0.554688H41.0892V4.83087H30.0218V10.6762H40.0101V14.9524H30.0218V25.0859H24.8298Z" fill="url(#paint1_linear_239_2448)"/>
<path d="M43.6463 4.83087V0.554688H63.8147V4.83087H56.2965V25.0859H51.1645V4.83087H43.6463Z" fill="url(#paint2_linear_239_2448)"/>
<path d="M72.7628 25.4452C70.8682 25.4452 69.2375 25.0619 67.8706 24.2953C66.5116 23.5207 65.4644 22.4267 64.729 21.0133C63.9935 19.5919 63.6258 17.911 63.6258 15.9705C63.6258 14.078 63.9935 12.417 64.729 10.9876C65.4644 9.55823 66.4996 8.44427 67.8346 7.64573C69.1775 6.84719 70.7523 6.44792 72.5589 6.44792C73.774 6.44792 74.9051 6.64356 75.9523 7.03485C77.0075 7.41815 77.9268 7.99709 78.7102 8.77167C79.5016 9.54626 80.1171 10.5205 80.5567 11.6943C80.9964 12.8602 81.2162 14.2257 81.2162 15.7908V17.1923H65.6643V14.0301H76.408C76.408 13.2954 76.2481 12.6446 75.9283 12.0776C75.6086 11.5107 75.1649 11.0675 74.5974 10.7481C74.0378 10.4207 73.3863 10.257 72.6429 10.257C71.8675 10.257 71.18 10.4366 70.5805 10.796C69.9889 11.1473 69.5253 11.6225 69.1895 12.2214C68.8538 12.8123 68.6819 13.4711 68.6739 14.1978V17.2043C68.6739 18.1146 68.8418 18.9012 69.1775 19.5639C69.5213 20.2267 70.0049 20.7378 70.6284 21.0971C71.2519 21.4565 71.9914 21.6362 72.8467 21.6362C73.4143 21.6362 73.9339 21.5563 74.4055 21.3966C74.8771 21.2369 75.2808 20.9973 75.6166 20.6779C75.9523 20.3585 76.2081 19.9672 76.384 19.5041L81.1083 19.8155C80.8685 20.9494 80.3769 21.9396 79.6335 22.7861C78.898 23.6245 77.9468 24.2793 76.7797 24.7505C75.6206 25.2136 74.2816 25.4452 72.7628 25.4452Z" fill="url(#paint3_linear_239_2448)"/>
<path d="M89.8016 25.4332C88.6265 25.4332 87.5793 25.2296 86.66 24.8223C85.7407 24.4071 85.0133 23.7962 84.4777 22.9897C83.9501 22.1752 83.6863 21.161 83.6863 19.9472C83.6863 18.9251 83.8742 18.0667 84.2499 17.372C84.6256 16.6772 85.1372 16.1182 85.7847 15.695C86.4322 15.2718 87.1676 14.9524 87.991 14.7368C88.8224 14.5212 89.6937 14.3694 90.605 14.2816C91.6762 14.1698 92.5395 14.066 93.195 13.9702C93.8505 13.8664 94.3261 13.7146 94.6219 13.515C94.9177 13.3154 95.0655 13.0199 95.0655 12.6286V12.5568C95.0655 11.7981 94.8257 11.2112 94.3461 10.796C93.8745 10.3807 93.203 10.1731 92.3316 10.1731C91.4124 10.1731 90.6809 10.3767 90.1374 10.784C89.5938 11.1833 89.234 11.6863 89.0582 12.2932L84.3338 11.9099C84.5736 10.792 85.0453 9.82575 85.7487 9.01123C86.4522 8.18874 87.3595 7.55789 88.4706 7.11869C89.5898 6.67151 90.8848 6.44792 92.3556 6.44792C93.3788 6.44792 94.3581 6.5677 95.2934 6.80726C96.2366 7.04682 97.072 7.41815 97.7994 7.92123C98.5349 8.42431 99.1144 9.07113 99.5381 9.86168C99.9618 10.6442 100.174 11.5825 100.174 12.6765V25.0859H95.3293V22.5345H95.1854C94.8897 23.1095 94.494 23.6165 93.9984 24.0557C93.5027 24.487 92.9072 24.8263 92.2117 25.0739C91.5163 25.3134 90.7129 25.4332 89.8016 25.4332ZM91.2645 21.9117C92.0159 21.9117 92.6794 21.7639 93.2549 21.4685C93.8305 21.165 94.2822 20.7578 94.6099 20.2467C94.9376 19.7356 95.1015 19.1567 95.1015 18.5099V16.5574C94.9416 16.6613 94.7218 16.7571 94.442 16.8449C94.1702 16.9248 93.8625 17.0006 93.5187 17.0725C93.175 17.1364 92.8313 17.1963 92.4875 17.2522C92.1438 17.3001 91.832 17.344 91.5523 17.3839C90.9527 17.4718 90.4291 17.6115 89.9815 17.8032C89.5338 17.9948 89.1861 18.2543 88.9383 18.5817C88.6905 18.9012 88.5666 19.3004 88.5666 19.7796C88.5666 20.4743 88.8184 21.0053 89.322 21.3726C89.8336 21.732 90.4811 21.9117 91.2645 21.9117Z" fill="url(#paint4_linear_239_2448)"/>
<path d="M107.122 25.3973C106.331 25.3973 105.651 25.1178 105.084 24.5588C104.524 23.9919 104.244 23.3131 104.244 22.5225C104.244 21.74 104.524 21.0692 105.084 20.5102C105.651 19.9512 106.331 19.6718 107.122 19.6718C107.89 19.6718 108.561 19.9512 109.137 20.5102C109.712 21.0692 110 21.74 110 22.5225C110 23.0496 109.864 23.5327 109.592 23.9719C109.329 24.4031 108.981 24.7505 108.549 25.014C108.117 25.2695 107.642 25.3973 107.122 25.3973Z" fill="url(#paint5_linear_239_2448)"/>
<defs>
<linearGradient id="paint0_linear_239_2448" x1="-7.03456" y1="0.554684" x2="125.206" y2="24.4958" gradientUnits="userSpaceOnUse">
<stop stop-color="#FCC2EB"/>
<stop offset="1" stop-color="#6D78FB"/>
</linearGradient>
<linearGradient id="paint1_linear_239_2448" x1="-7.03456" y1="0.554684" x2="125.206" y2="24.4958" gradientUnits="userSpaceOnUse">
<stop stop-color="#FCC2EB"/>
<stop offset="1" stop-color="#6D78FB"/>
</linearGradient>
<linearGradient id="paint2_linear_239_2448" x1="-7.03456" y1="0.554684" x2="125.206" y2="24.4958" gradientUnits="userSpaceOnUse">
<stop stop-color="#FCC2EB"/>
<stop offset="1" stop-color="#6D78FB"/>
</linearGradient>
<linearGradient id="paint3_linear_239_2448" x1="-7.03456" y1="0.554684" x2="125.206" y2="24.4958" gradientUnits="userSpaceOnUse">
<stop stop-color="#FCC2EB"/>
<stop offset="1" stop-color="#6D78FB"/>
</linearGradient>
<linearGradient id="paint4_linear_239_2448" x1="-7.03456" y1="0.554684" x2="125.206" y2="24.4958" gradientUnits="userSpaceOnUse">
<stop stop-color="#FCC2EB"/>
<stop offset="1" stop-color="#6D78FB"/>
</linearGradient>
<linearGradient id="paint5_linear_239_2448" x1="-7.03456" y1="0.554684" x2="125.206" y2="24.4958" gradientUnits="userSpaceOnUse">
<stop stop-color="#FCC2EB"/>
<stop offset="1" stop-color="#6D78FB"/>
</linearGradient>
</defs>
</svg>
