<svg width="29" height="28" viewBox="0 0 29 28" fill="none" xmlns="http://www.w3.org/2000/svg">
<path d="M14.5 7.51367V11.3987" stroke="#718096" stroke-width="1.5" stroke-miterlimit="10" stroke-linecap="round"/>
<path d="M14.5232 2.33301C10.2299 2.33301 6.75321 5.80967 6.75321 10.103V12.553C6.75321 13.3463 6.42655 14.5363 6.01821 15.213L4.53655 17.6863C3.62655 19.2147 4.25655 20.918 5.93655 21.478C11.5132 23.333 17.5449 23.333 23.1215 21.478C24.6965 20.953 25.3732 19.1097 24.5215 17.6863L23.0399 15.213C22.6315 14.5363 22.3049 13.3347 22.3049 12.553V10.103C22.2932 5.83301 18.7932 2.33301 14.5232 2.33301Z" stroke="#718096" stroke-width="1.5" stroke-miterlimit="10" stroke-linecap="round"/>
<path d="M18.3852 21.957C18.3852 24.092 16.6352 25.842 14.5002 25.842C13.4386 25.842 12.4586 25.3987 11.7586 24.6987C11.0586 23.9987 10.6152 23.0187 10.6152 21.957" stroke="#718096" stroke-width="1.5" stroke-miterlimit="10"/>
</svg>
