<svg width="18" height="24" viewBox="0 0 18 24" fill="none" xmlns="http://www.w3.org/2000/svg">
<path d="M0.601847 20.7179C0.394627 20.9868 0.278251 21.3514 0.27832 21.7316C0.278389 22.1117 0.394898 22.4763 0.602215 22.745C0.809533 23.0138 1.09068 23.1647 1.3838 23.1646C1.67692 23.1645 1.95801 23.0134 2.16523 22.7445L8.989 13.8957C9.00611 13.8734 9.02644 13.8558 9.04881 13.8437C9.07119 13.8317 9.09518 13.8255 9.11941 13.8255C9.14363 13.8255 9.16762 13.8317 9.19 13.8437C9.21238 13.8558 9.2327 13.8734 9.24981 13.8957L16.0736 22.7465C16.1762 22.8796 16.298 22.9852 16.4321 23.0573C16.5662 23.1294 16.7099 23.1665 16.855 23.1665C17.0002 23.1666 17.1439 23.1295 17.278 23.0575C17.4121 22.9855 17.5339 22.88 17.6366 22.7469C17.7393 22.6139 17.8207 22.4559 17.8763 22.282C17.9318 22.1081 17.9605 21.9217 17.9605 21.7335C17.9605 21.5453 17.932 21.3589 17.8765 21.1849C17.821 21.011 17.7396 20.853 17.637 20.7198L10.8139 11.8671C10.7968 11.8449 10.7832 11.8186 10.7739 11.7896C10.7646 11.7605 10.7598 11.7294 10.7598 11.698C10.7598 11.6666 10.7646 11.6355 10.7739 11.6065C10.7832 11.5774 10.7968 11.5511 10.8139 11.5289L17.6384 2.67904C17.8457 2.40992 17.962 2.04506 17.9618 1.66472C17.9615 1.28439 17.8448 0.919742 17.6373 0.650996C17.4298 0.38225 17.1485 0.231421 16.8552 0.23169C16.562 0.231959 16.2808 0.383303 16.0736 0.652429L9.24981 9.50036C9.2327 9.5226 9.21238 9.54026 9.19 9.5523C9.16762 9.56434 9.14363 9.57054 9.11941 9.57054C9.09518 9.57054 9.07119 9.56434 9.04881 9.5523C9.02644 9.54026 9.00611 9.5226 8.989 9.50036L2.16523 0.652429C2.06262 0.519297 1.94081 0.413678 1.80673 0.341604C1.67265 0.269529 1.52894 0.23241 1.3838 0.232365C1.09068 0.232276 0.809533 0.383205 0.602215 0.651951C0.394898 0.920697 0.278389 1.28525 0.27832 1.6654C0.278251 2.04555 0.394627 2.41017 0.601847 2.67904L7.42488 11.5289C7.44204 11.5511 7.45564 11.5774 7.46493 11.6065C7.47422 11.6355 7.479 11.6666 7.479 11.698C7.479 11.7294 7.47422 11.7605 7.46493 11.7896C7.45564 11.8186 7.44204 11.8449 7.42488 11.8671L0.601847 20.7179Z" fill="#CBD5E0"/>
</svg>
