<svg width="20" height="24" viewBox="0 0 20 24" fill="none" xmlns="http://www.w3.org/2000/svg">
<path d="M0.77991 20.6097C0.558641 20.878 0.434375 21.2418 0.434448 21.6211C0.434522 22.0003 0.55893 22.3641 0.780304 22.6322C1.00168 22.9003 1.30188 23.0509 1.61488 23.0508C1.92787 23.0508 2.22802 22.9 2.44929 22.6317L9.73572 13.8029C9.75399 13.7807 9.7757 13.7631 9.79959 13.7511C9.82348 13.7391 9.8491 13.7329 9.87497 13.7329C9.90084 13.7329 9.92645 13.7391 9.95035 13.7511C9.97424 13.7631 9.99595 13.7807 10.0142 13.8029L17.3006 22.6336C17.4102 22.7665 17.5403 22.8718 17.6835 22.9438C17.8266 23.0157 17.9801 23.0527 18.1351 23.0527C18.29 23.0528 18.4435 23.0158 18.5867 22.944C18.7299 22.8722 18.86 22.7669 18.9696 22.6341C19.0792 22.5013 19.1662 22.3437 19.2255 22.1702C19.2849 21.9967 19.3155 21.8108 19.3155 21.623C19.3155 21.4352 19.285 21.2492 19.2258 21.0757C19.1665 20.9021 19.0796 20.7444 18.97 20.6116L11.6844 11.779C11.6661 11.7568 11.6515 11.7305 11.6416 11.7016C11.6317 11.6726 11.6266 11.6416 11.6266 11.6102C11.6266 11.5789 11.6317 11.5479 11.6416 11.5189C11.6515 11.4899 11.6661 11.4636 11.6844 11.4415L18.9716 2.61173C19.1929 2.34321 19.3171 1.97918 19.3168 1.59971C19.3166 1.22024 19.192 0.856414 18.9704 0.588277C18.7488 0.320141 18.4484 0.169654 18.1353 0.169922C17.8221 0.17019 17.5219 0.321192 17.3006 0.589707L10.0142 9.41757C9.99595 9.43977 9.97424 9.45738 9.95035 9.46939C9.92645 9.48141 9.90084 9.48759 9.87497 9.48759C9.8491 9.48759 9.82348 9.48141 9.79959 9.46939C9.7757 9.45738 9.75399 9.43977 9.73572 9.41757L2.44929 0.589707C2.33973 0.456877 2.20965 0.351498 2.06648 0.279587C1.92331 0.207676 1.76986 0.170641 1.61488 0.170596C1.30188 0.170507 1.00168 0.321094 0.780304 0.589231C0.55893 0.857367 0.434522 1.22109 0.434448 1.60038C0.434375 1.97967 0.558641 2.34346 0.77991 2.61173L8.06555 11.4415C8.08387 11.4636 8.0984 11.4899 8.10832 11.5189C8.11823 11.5479 8.12334 11.5789 8.12334 11.6102C8.12334 11.6416 8.11823 11.6726 8.10832 11.7016C8.0984 11.7305 8.08387 11.7568 8.06555 11.779L0.77991 20.6097Z" fill="#293644"/>
</svg>
