<svg width="28" height="29" viewBox="0 0 28 29" fill="none" xmlns="http://www.w3.org/2000/svg">
<path d="M23.7045 5.04587C21.1889 2.43468 17.8387 0.998535 14.2785 0.998535C6.92981 0.998535 0.95001 7.19076 0.95001 14.8005C0.95001 17.2314 1.5624 19.6063 2.72714 21.7015L0.835938 28.8511L7.90242 26.93C9.84766 28.0305 12.0391 28.6087 14.2725 28.6087H14.2785C21.6211 28.6087 27.733 22.4164 27.733 14.8067C27.733 11.12 26.2201 7.65705 23.7045 5.04587ZM14.2785 26.2835C12.2852 26.2835 10.334 25.7301 8.63489 24.6857L8.23263 24.437L4.04197 25.5747L5.15868 21.3409L4.89451 20.9057C3.78381 19.0779 3.20144 16.9703 3.20144 14.8005C3.20144 8.4777 8.1726 3.32995 14.2845 3.32995C17.2444 3.32995 20.0241 4.52363 22.1134 6.6934C24.2028 8.86316 25.4876 11.7417 25.4816 14.8067C25.4816 21.1357 20.3843 26.2835 14.2785 26.2835ZM20.3543 17.6914C20.0241 17.5174 18.3851 16.6843 18.0789 16.5724C17.7727 16.4542 17.5506 16.3983 17.3284 16.7464C17.1063 17.0946 16.4699 17.8655 16.2717 18.1018C16.0796 18.3318 15.8815 18.3629 15.5513 18.1888C13.594 17.1754 12.3092 16.3796 11.0184 14.0855C10.6762 13.4762 11.3606 13.5198 11.997 12.2017C12.1051 11.9717 12.0511 11.7728 11.967 11.5987C11.883 11.4246 11.2165 9.72734 10.9404 9.03724C10.6702 8.3658 10.394 8.45905 10.1899 8.44662C9.99776 8.43418 9.77561 8.43418 9.55347 8.43418C9.33133 8.43418 8.9711 8.52122 8.66491 8.86316C8.35871 9.21132 7.50017 10.0444 7.50017 11.7417C7.50017 13.4389 8.69493 15.0803 8.85703 15.3103C9.02514 15.5403 11.2045 19.0219 14.5486 20.5202C16.662 21.4652 17.4905 21.546 18.5472 21.3844C19.1896 21.2849 20.5164 20.5513 20.7926 19.7431C21.0688 18.9349 21.0688 18.2448 20.9847 18.1018C20.9067 17.9463 20.6845 17.8593 20.3543 17.6914Z" fill="#25D366"/>
</svg>
