<svg width="18" height="24" viewBox="0 0 18 24" fill="none" xmlns="http://www.w3.org/2000/svg">
<path d="M0.601847 20.7181C0.394627 20.9869 0.278251 21.3515 0.27832 21.7317C0.278389 22.1119 0.394898 22.4764 0.602215 22.7451C0.809533 23.0139 1.09068 23.1648 1.3838 23.1647C1.67692 23.1646 1.95801 23.0135 2.16523 22.7447L8.989 13.8958C9.00611 13.8735 9.02644 13.8559 9.04881 13.8438C9.07119 13.8318 9.09518 13.8256 9.11941 13.8256C9.14363 13.8256 9.16762 13.8318 9.19 13.8438C9.21238 13.8559 9.2327 13.8735 9.24981 13.8958L16.0736 22.7466C16.1762 22.8797 16.298 22.9853 16.4321 23.0574C16.5662 23.1295 16.7099 23.1666 16.855 23.1666C17.0002 23.1667 17.1439 23.1297 17.278 23.0577C17.4121 22.9857 17.5339 22.8801 17.6366 22.7471C17.7393 22.614 17.8207 22.456 17.8763 22.2821C17.9318 22.1082 17.9605 21.9218 17.9605 21.7336C17.9605 21.5454 17.932 21.359 17.8765 21.1851C17.821 21.0111 17.7396 20.8531 17.637 20.72L10.8139 11.8673C10.7968 11.8451 10.7832 11.8187 10.7739 11.7897C10.7646 11.7607 10.7598 11.7296 10.7598 11.6981C10.7598 11.6667 10.7646 11.6356 10.7739 11.6066C10.7832 11.5776 10.7968 11.5512 10.8139 11.529L17.6384 2.67917C17.8457 2.41004 17.962 2.04518 17.9618 1.66485C17.9615 1.28451 17.8448 0.919864 17.6373 0.651118C17.4298 0.382372 17.1485 0.231543 16.8552 0.231812C16.562 0.232081 16.2808 0.383425 16.0736 0.652551L9.24981 9.50048C9.2327 9.52273 9.21238 9.54038 9.19 9.55242C9.16762 9.56446 9.14363 9.57066 9.11941 9.57066C9.09518 9.57066 9.07119 9.56446 9.04881 9.55242C9.02644 9.54038 9.00611 9.52273 8.989 9.50048L2.16523 0.652551C2.06262 0.519419 1.94081 0.4138 1.80673 0.341726C1.67265 0.269651 1.52894 0.232532 1.3838 0.232487C1.09068 0.232398 0.809533 0.383327 0.602215 0.652073C0.394898 0.920819 0.278389 1.28537 0.27832 1.66552C0.278251 2.04567 0.394627 2.41029 0.601847 2.67917L7.42488 11.529C7.44204 11.5512 7.45564 11.5776 7.46493 11.6066C7.47422 11.6356 7.479 11.6667 7.479 11.6981C7.479 11.7296 7.47422 11.7607 7.46493 11.7897C7.45564 11.8187 7.44204 11.8451 7.42488 11.8673L0.601847 20.7181Z" fill="#CBD5E0"/>
</svg>
