<svg width="28" height="27" viewBox="0 0 28 27" fill="none" xmlns="http://www.w3.org/2000/svg">
<path d="M24.2147 10.2324C23.3643 10.2324 22.616 10.5964 22.0661 11.1658C20.0422 9.71579 17.3154 8.78239 14.2938 8.68259L15.8641 1.35626L20.8642 2.51861C20.8642 3.78663 21.862 4.81983 23.0865 4.81983C24.3337 4.81983 25.3371 3.75728 25.3371 2.48926C25.3371 1.22124 24.3394 0.158691 23.0865 0.158691C22.2135 0.158691 21.4595 0.704644 21.0853 1.45019L15.5637 0.182173C15.2859 0.105857 15.0138 0.311323 14.9401 0.598976L13.2167 8.67672C10.2177 8.80587 7.51928 9.73927 5.48975 11.1893C4.93985 10.5964 4.16319 10.2324 3.31283 10.2324C0.160835 10.2324 -0.870934 14.6117 2.01462 16.1087C1.91258 16.5725 1.86722 17.0656 1.86722 17.5587C1.86722 22.4782 7.21882 26.4642 13.7893 26.4642C20.388 26.4642 25.7396 22.4782 25.7396 17.5587C25.7396 17.0656 25.6886 16.549 25.5639 16.0852C28.3928 14.5824 27.3497 10.2324 24.2147 10.2324ZM6.58955 16.4198C6.58955 15.1283 7.58731 14.0893 8.84017 14.0893C10.0647 14.0893 11.0624 15.1225 11.0624 16.4198C11.0624 17.6879 10.0647 18.7211 8.84017 18.7211C7.59297 18.7269 6.58955 17.6879 6.58955 16.4198ZM18.7383 21.9087C16.6748 24.0456 10.8527 24.0456 8.78915 21.9087C8.56238 21.7033 8.56238 21.3393 8.78915 21.1045C8.98756 20.899 9.33904 20.899 9.53746 21.1045C11.1135 22.7775 16.3403 22.8069 17.9844 21.1045C18.1828 20.899 18.5343 20.899 18.7327 21.1045C18.9651 21.3393 18.9651 21.7033 18.7383 21.9087ZM18.693 18.7269C17.4685 18.7269 16.4707 17.6937 16.4707 16.4257C16.4707 15.1342 17.4685 14.0951 18.693 14.0951C19.9402 14.0951 20.9436 15.1283 20.9436 16.4257C20.9379 17.6879 19.9402 18.7269 18.693 18.7269Z" fill="#FF4500"/>
</svg>
