<svg width="18" height="24" viewBox="0 0 18 24" fill="none" xmlns="http://www.w3.org/2000/svg">
<path d="M0.601847 20.7177C0.394627 20.9866 0.278251 21.3512 0.27832 21.7313C0.278389 22.1115 0.394898 22.476 0.602215 22.7448C0.809533 23.0135 1.09068 23.1645 1.3838 23.1644C1.67692 23.1643 1.95801 23.0132 2.16523 22.7443L8.989 13.8954C9.00611 13.8732 9.02644 13.8555 9.04881 13.8435C9.07119 13.8314 9.09518 13.8252 9.11941 13.8252C9.14363 13.8252 9.16762 13.8314 9.19 13.8435C9.21238 13.8555 9.2327 13.8732 9.24981 13.8954L16.0736 22.7462C16.1762 22.8793 16.298 22.985 16.4321 23.057C16.5662 23.1291 16.7099 23.1662 16.855 23.1663C17.0002 23.1663 17.1439 23.1293 17.278 23.0573C17.4121 22.9853 17.5339 22.8798 17.6366 22.7467C17.7393 22.6136 17.8207 22.4556 17.8763 22.2817C17.9318 22.1079 17.9605 21.9215 17.9605 21.7332C17.9605 21.545 17.932 21.3586 17.8765 21.1847C17.821 21.0108 17.7396 20.8527 17.637 20.7196L10.8139 11.8669C10.7968 11.8447 10.7832 11.8183 10.7739 11.7893C10.7646 11.7603 10.7598 11.7292 10.7598 11.6978C10.7598 11.6663 10.7646 11.6352 10.7739 11.6062C10.7832 11.5772 10.7968 11.5508 10.8139 11.5286L17.6384 2.6788C17.8457 2.40967 17.962 2.04481 17.9618 1.66448C17.9615 1.28415 17.8448 0.919498 17.6373 0.650752C17.4298 0.382006 17.1485 0.231177 16.8552 0.231446C16.562 0.231714 16.2808 0.383059 16.0736 0.652185L9.24981 9.50012C9.2327 9.52236 9.21238 9.54001 9.19 9.55205C9.16762 9.5641 9.14363 9.57029 9.11941 9.57029C9.09518 9.57029 9.07119 9.5641 9.04881 9.55205C9.02644 9.54001 9.00611 9.52236 8.989 9.50012L2.16523 0.652185C2.06262 0.519053 1.94081 0.413434 1.80673 0.341359C1.67265 0.269285 1.52894 0.232166 1.3838 0.232121C1.09068 0.232032 0.809533 0.382961 0.602215 0.651707C0.394898 0.920453 0.278389 1.285 0.27832 1.66515C0.278251 2.04531 0.394627 2.40993 0.601847 2.6788L7.42488 11.5286C7.44204 11.5508 7.45564 11.5772 7.46493 11.6062C7.47422 11.6352 7.479 11.6663 7.479 11.6978C7.479 11.7292 7.47422 11.7603 7.46493 11.7893C7.45564 11.8183 7.44204 11.8447 7.42488 11.8669L0.601847 20.7177Z" fill="#CBD5E0"/>
</svg>
