<svg width="22" height="22" viewBox="0 0 22 22" fill="none" xmlns="http://www.w3.org/2000/svg">
<path d="M17.1284 14.6675H16.0751L15.7018 14.3075C17.3018 12.4408 18.1284 9.89417 17.6751 7.1875C17.0484 3.48083 13.9551 0.520834 10.2218 0.0675008C4.58177 -0.625833 -0.164895 4.12083 0.528438 9.76083C0.981772 13.4942 3.94177 16.5875 7.64844 17.2142C10.3551 17.6675 12.9018 16.8408 14.7684 15.2408L15.1284 15.6142V16.6675L19.1419 20.681C19.6886 21.2276 20.5819 21.2276 21.1286 20.681C21.6752 20.1343 21.6752 19.241 21.1286 18.6943L17.1284 14.6675ZM9.12844 14.6675C5.80844 14.6675 3.12844 11.9875 3.12844 8.6675C3.12844 5.3475 5.80844 2.6675 9.12844 2.6675C12.4484 2.6675 15.1284 5.3475 15.1284 8.6675C15.1284 11.9875 12.4484 14.6675 9.12844 14.6675Z" fill="#A7B2BE"/>
</svg>
