<svg width="23" height="22" viewBox="0 0 23 22" fill="none" xmlns="http://www.w3.org/2000/svg">
<path d="M17.6284 14.6675H16.5751L16.2018 14.3075C17.8018 12.4408 18.6284 9.89417 18.1751 7.1875C17.5484 3.48083 14.4551 0.520834 10.7218 0.0675008C5.08177 -0.625833 0.335105 4.12083 1.02844 9.76083C1.48177 13.4942 4.44177 16.5875 8.14844 17.2142C10.8551 17.6675 13.4018 16.8408 15.2684 15.2408L15.6284 15.6142V16.6675L19.6419 20.681C20.1886 21.2276 21.0819 21.2276 21.6286 20.681C22.1752 20.1343 22.1752 19.241 21.6286 18.6943L17.6284 14.6675ZM9.62844 14.6675C6.30844 14.6675 3.62844 11.9875 3.62844 8.6675C3.62844 5.3475 6.30844 2.6675 9.62844 2.6675C12.9484 2.6675 15.6284 5.3475 15.6284 8.6675C15.6284 11.9875 12.9484 14.6675 9.62844 14.6675Z" fill="#A7B2BE"/>
</svg>
