<svg width="18" height="22" viewBox="0 0 18 22" fill="none" xmlns="http://www.w3.org/2000/svg">
<path d="M0.601847 18.7177C0.394627 18.9866 0.278251 19.3512 0.27832 19.7313C0.278389 20.1115 0.394898 20.476 0.602215 20.7448C0.809533 21.0135 1.09068 21.1645 1.3838 21.1644C1.67692 21.1643 1.95801 21.0132 2.16523 20.7443L8.989 11.8954C9.00611 11.8732 9.02644 11.8555 9.04881 11.8435C9.07119 11.8314 9.09518 11.8252 9.11941 11.8252C9.14363 11.8252 9.16762 11.8314 9.19 11.8435C9.21238 11.8555 9.2327 11.8732 9.24981 11.8954L16.0736 20.7462C16.1762 20.8793 16.298 20.985 16.4321 21.057C16.5662 21.1291 16.7099 21.1662 16.855 21.1663C17.0002 21.1663 17.1439 21.1293 17.278 21.0573C17.4121 20.9853 17.5339 20.8798 17.6366 20.7467C17.7393 20.6136 17.8207 20.4556 17.8763 20.2817C17.9318 20.1079 17.9605 19.9215 17.9605 19.7332C17.9605 19.545 17.932 19.3586 17.8765 19.1847C17.821 19.0108 17.7396 18.8527 17.637 18.7196L10.8139 9.86689C10.7968 9.8447 10.7832 9.81834 10.7739 9.78932C10.7646 9.7603 10.7598 9.72919 10.7598 9.69777C10.7598 9.66635 10.7646 9.63523 10.7739 9.60621C10.7832 9.57719 10.7968 9.55083 10.8139 9.52864L17.6384 0.678801C17.8457 0.409675 17.962 0.0448123 17.9618 -0.335521C17.9615 -0.715854 17.8448 -1.0805 17.6373 -1.34925C17.4298 -1.61799 17.1485 -1.76882 16.8552 -1.76855C16.562 -1.76829 16.2808 -1.61694 16.0736 -1.34782L9.24981 7.50012C9.2327 7.52236 9.21238 7.54001 9.19 7.55205C9.16762 7.5641 9.14363 7.57029 9.11941 7.57029C9.09518 7.57029 9.07119 7.5641 9.04881 7.55205C9.02644 7.54001 9.00611 7.52236 8.989 7.50012L2.16523 -1.34782C2.06262 -1.48095 1.94081 -1.58657 1.80673 -1.65864C1.67265 -1.73072 1.52894 -1.76783 1.3838 -1.76788C1.09068 -1.76797 0.809533 -1.61704 0.602215 -1.34829C0.394898 -1.07955 0.278389 -0.714999 0.27832 -0.334845C0.278251 0.0453087 0.394627 0.409928 0.601847 0.678801L7.42488 9.52864C7.44204 9.55083 7.45564 9.57719 7.46493 9.60621C7.47422 9.63523 7.479 9.66635 7.479 9.69777C7.479 9.72919 7.47422 9.7603 7.46493 9.78932C7.45564 9.81834 7.44204 9.8447 7.42488 9.86689L0.601847 18.7177Z" fill="#CBD5E0"/>
</svg>
