<svg width="28" height="23" viewBox="0 0 28 23" fill="none" xmlns="http://www.w3.org/2000/svg">
<path d="M24.4092 5.95701C24.4263 6.20442 24.4263 6.45188 24.4263 6.69929C24.4263 14.2456 18.8796 22.9408 8.74196 22.9408C5.61873 22.9408 2.71741 22.0041 0.276855 20.3782C0.720606 20.4312 1.14723 20.4489 1.60806 20.4489C4.18509 20.4489 6.5574 19.5476 8.45181 18.01C6.02834 17.957 3.99739 16.3134 3.29764 14.0513C3.639 14.1042 3.98031 14.1396 4.33875 14.1396C4.83367 14.1396 5.32864 14.0689 5.78941 13.9452C3.26355 13.415 1.36908 11.1175 1.36908 8.34287V8.27221C2.10292 8.69636 2.95633 8.96145 3.8608 8.99676C2.37599 7.9717 1.40323 6.2221 1.40323 4.2427C1.40323 3.18234 1.67624 2.21033 2.15414 1.36202C4.86776 4.82592 8.94673 7.08803 13.5206 7.3355C13.4353 6.91134 13.384 6.46956 13.384 6.02773C13.384 2.88189 15.8417 0.319336 18.8966 0.319336C20.4838 0.319336 21.9174 1.00858 22.9243 2.12198C24.1702 1.87457 25.3648 1.39738 26.423 0.743491C26.0134 2.069 25.143 3.1824 23.9995 3.88927C25.1089 3.76562 26.1841 3.44743 27.1739 3.00565C26.4231 4.13668 25.4844 5.144 24.4092 5.95701Z" fill="#1DA1F2"/>
</svg>
