<svg width="25" height="24" viewBox="0 0 25 24" fill="none" xmlns="http://www.w3.org/2000/svg">
<rect width="24" height="24" transform="translate(0.540039)" fill="white"/>
<path d="M6.65002 17.5001C4.44002 15.4301 2.54004 12.4801 2.54004 8.68005C2.54004 5.59005 5.03004 3.09009 8.10004 3.09009C9.92004 3.09009 11.53 3.97008 12.54 5.33008C13.55 3.97008 15.17 3.09009 16.98 3.09009C18.13 3.09009 19.2 3.44005 20.09 4.05005" stroke="#292D32" stroke-width="1.5" stroke-linecap="round" stroke-linejoin="round"/>
<path d="M22.28 7C22.45 7.53 22.54 8.1 22.54 8.69C22.54 15.69 16.06 19.82 13.16 20.82C12.82 20.94 12.26 20.94 11.92 20.82C11.27 20.6 10.4501 20.22 9.56006 19.69" stroke="#292D32" stroke-width="1.5" stroke-linecap="round" stroke-linejoin="round"/>
<path d="M22.54 2L2.54004 22" stroke="#292D32" stroke-width="1.5" stroke-linecap="round" stroke-linejoin="round"/>
</svg>
