<svg width="25" height="25" viewBox="0 0 25 25" fill="none" xmlns="http://www.w3.org/2000/svg">
<rect width="24" height="24" transform="translate(0.153809 0.538574)" fill="#0D0D0D"/>
<path d="M6.26379 18.0384C4.05379 15.9684 2.15381 13.0184 2.15381 9.21838C2.15381 6.12838 4.64381 3.62842 7.71381 3.62842C9.53381 3.62842 11.1438 4.50841 12.1538 5.86841C13.1638 4.50841 14.7838 3.62842 16.5938 3.62842C17.7438 3.62842 18.8138 3.97838 19.7038 4.58838" stroke="#CDD1D6" stroke-width="1.5" stroke-linecap="round" stroke-linejoin="round"/>
<path d="M21.8938 7.53857C22.0638 8.06857 22.1538 8.63858 22.1538 9.22858C22.1538 16.2286 15.6738 20.3586 12.7738 21.3586C12.4338 21.4786 11.8738 21.4786 11.5338 21.3586C10.8838 21.1386 10.0638 20.7586 9.17383 20.2286" stroke="#CDD1D6" stroke-width="1.5" stroke-linecap="round" stroke-linejoin="round"/>
<path d="M22.1538 2.53857L2.15381 22.5386" stroke="#CDD1D6" stroke-width="1.5" stroke-linecap="round" stroke-linejoin="round"/>
</svg>
