<svg width="25" height="24" viewBox="0 0 25 24" fill="none" xmlns="http://www.w3.org/2000/svg">
<rect width="24" height="24" transform="translate(0.459961)" fill="white"/>
<path d="M6.56995 17.5001C4.35995 15.4301 2.45996 12.4801 2.45996 8.68005C2.45996 5.59005 4.94996 3.09009 8.01996 3.09009C9.83996 3.09009 11.45 3.97008 12.46 5.33008C13.47 3.97008 15.09 3.09009 16.9 3.09009C18.05 3.09009 19.1199 3.44005 20.0099 4.05005" stroke="#292D32" stroke-width="1.5" stroke-linecap="round" stroke-linejoin="round"/>
<path d="M22.2 7C22.37 7.53 22.46 8.1 22.46 8.69C22.46 15.69 15.98 19.82 13.08 20.82C12.74 20.94 12.18 20.94 11.84 20.82C11.19 20.6 10.37 20.22 9.47998 19.69" stroke="#292D32" stroke-width="1.5" stroke-linecap="round" stroke-linejoin="round"/>
<path d="M22.46 2L2.45996 22" stroke="#292D32" stroke-width="1.5" stroke-linecap="round" stroke-linejoin="round"/>
</svg>
