<svg width="25" height="25" viewBox="0 0 25 25" fill="none" xmlns="http://www.w3.org/2000/svg">
<rect width="24" height="24" transform="translate(0.24585 0.92334)" fill="#0D0D0D"/>
<path d="M6.35583 18.4232C4.14583 16.3532 2.24585 13.4031 2.24585 9.60315C2.24585 6.51315 4.73585 4.01318 7.80585 4.01318C9.62585 4.01318 11.2358 4.89317 12.2458 6.25317C13.2558 4.89317 14.8759 4.01318 16.6859 4.01318C17.8359 4.01318 18.9058 4.36314 19.7958 4.97314" stroke="#CDD1D6" stroke-width="1.5" stroke-linecap="round" stroke-linejoin="round"/>
<path d="M21.9858 7.92334C22.1558 8.45334 22.2458 9.02334 22.2458 9.61334C22.2458 16.6133 15.7658 20.7433 12.8658 21.7433C12.5258 21.8633 11.9659 21.8633 11.6259 21.7433C10.9759 21.5233 10.1559 21.1433 9.26587 20.6133" stroke="#CDD1D6" stroke-width="1.5" stroke-linecap="round" stroke-linejoin="round"/>
<path d="M22.2458 2.92334L2.24585 22.9233" stroke="#CDD1D6" stroke-width="1.5" stroke-linecap="round" stroke-linejoin="round"/>
</svg>
