<svg width="24" height="25" viewBox="0 0 24 25" fill="none" xmlns="http://www.w3.org/2000/svg">
<rect width="24" height="24" transform="translate(0 0.153809)" fill="#0D0D0D"/>
<path d="M6.10999 17.6536C3.89999 15.5836 2 12.6336 2 8.83362C2 5.74362 4.49 3.24365 7.56 3.24365C9.38 3.24365 10.99 4.12364 12 5.48364C13.01 4.12364 14.63 3.24365 16.44 3.24365C17.59 3.24365 18.66 3.59361 19.55 4.20361" stroke="#CDD1D6" stroke-width="1.5" stroke-linecap="round" stroke-linejoin="round"/>
<path d="M21.74 7.15381C21.91 7.68381 22 8.25381 22 8.84381C22 15.8438 15.52 19.9738 12.62 20.9738C12.28 21.0938 11.72 21.0938 11.38 20.9738C10.73 20.7538 9.91002 20.3738 9.02002 19.8438" stroke="#CDD1D6" stroke-width="1.5" stroke-linecap="round" stroke-linejoin="round"/>
<path d="M22 2.15381L2 22.1538" stroke="#CDD1D6" stroke-width="1.5" stroke-linecap="round" stroke-linejoin="round"/>
</svg>
