<svg width="90" height="26" viewBox="0 0 90 26" fill="none" xmlns="http://www.w3.org/2000/svg">
<path d="M47.0975 22.84L40.5775 16.32C39.8075 15.55 39.8075 14.29 40.5775 13.52L47.0975 7" stroke="#292D32" stroke-width="1.5" stroke-miterlimit="10" stroke-linecap="round" stroke-linejoin="round"/>
<path d="M5.90991 22.92L12.4299 16.4C13.1999 15.63 13.1999 14.37 12.4299 13.6L5.90991 7.07999" stroke="#292D32" stroke-width="1.5" stroke-miterlimit="10" stroke-linecap="round" stroke-linejoin="round"/>
<path d="M81.55 24.67C85.84 23.54 89 19.64 89 15C89 9.48 84.56 5 79 5C72.33 5 69 10.56 69 10.56M69 10.56V6M69 10.56H71.01H73.44" stroke="#292D32" stroke-width="1.5" stroke-linecap="round" stroke-linejoin="round"/>
<path d="M69 15C69 20.52 73.48 25 79 25" stroke="#292D32" stroke-width="1.5" stroke-linecap="round" stroke-linejoin="round" stroke-dasharray="3 3"/>
</svg>
