<svg width="25" height="24" viewBox="0 0 25 24" fill="none" xmlns="http://www.w3.org/2000/svg">
<path d="M6.26379 17.4998C4.05379 15.4298 2.15381 12.4798 2.15381 8.67981C2.15381 5.58981 4.64381 3.08984 7.71381 3.08984C9.53381 3.08984 11.1438 3.96983 12.1538 5.32983C13.1638 3.96983 14.7838 3.08984 16.5938 3.08984C17.7438 3.08984 18.8138 3.4398 19.7038 4.0498" stroke="#CDD1D6" stroke-width="1.5" stroke-linecap="round" stroke-linejoin="round"/>
<path d="M21.8938 7C22.0638 7.53 22.1538 8.1 22.1538 8.69C22.1538 15.69 15.6738 19.82 12.7738 20.82C12.4338 20.94 11.8738 20.94 11.5338 20.82C10.8838 20.6 10.0638 20.22 9.17383 19.69" stroke="#CDD1D6" stroke-width="1.5" stroke-linecap="round" stroke-linejoin="round"/>
<path d="M22.1538 2L2.15381 22" stroke="#CDD1D6" stroke-width="1.5" stroke-linecap="round" stroke-linejoin="round"/>
</svg>
