<svg width="90" height="26" viewBox="0 0 90 26" fill="none" xmlns="http://www.w3.org/2000/svg">
<path d="M47.0975 22.84L40.5775 16.32C39.8075 15.55 39.8075 14.29 40.5775 13.52L47.0975 7" stroke="#CDD1D6" stroke-width="1.5" stroke-miterlimit="10" stroke-linecap="round" stroke-linejoin="round"/>
<path d="M5.91016 22.9201L12.4302 16.4001C13.2002 15.6301 13.2002 14.3701 12.4302 13.6001L5.91016 7.08008" stroke="#CDD1D6" stroke-width="1.5" stroke-miterlimit="10" stroke-linecap="round" stroke-linejoin="round"/>
<path d="M81.55 24.67C85.84 23.54 89 19.64 89 15C89 9.48 84.56 5 79 5C72.33 5 69 10.56 69 10.56M69 10.56V6M69 10.56H71.01H73.44" stroke="#CDD1D6" stroke-width="1.5" stroke-linecap="round" stroke-linejoin="round"/>
<path d="M69 15C69 20.52 73.48 25 79 25" stroke="#CDD1D6" stroke-width="1.5" stroke-linecap="round" stroke-linejoin="round" stroke-dasharray="3 3"/>
</svg>
