<svg width="24" height="25" viewBox="0 0 24 25" fill="none" xmlns="http://www.w3.org/2000/svg">
<rect width="24" height="24" transform="translate(0 0.592285)" fill="#0D0D0D"/>
<path d="M6.10999 18.0921C3.89999 16.0221 2 13.0721 2 9.27209C2 6.18209 4.49 3.68213 7.56 3.68213C9.38 3.68213 10.99 4.56212 12 5.92212C13.01 4.56212 14.63 3.68213 16.44 3.68213C17.59 3.68213 18.66 4.03209 19.55 4.64209" stroke="#CDD1D6" stroke-width="1.5" stroke-linecap="round" stroke-linejoin="round"/>
<path d="M21.74 7.59229C21.91 8.12229 22 8.69229 22 9.28229C22 16.2823 15.52 20.4123 12.62 21.4123C12.28 21.5323 11.72 21.5323 11.38 21.4123C10.73 21.1923 9.91002 20.8123 9.02002 20.2823" stroke="#CDD1D6" stroke-width="1.5" stroke-linecap="round" stroke-linejoin="round"/>
<path d="M22 2.59229L2 22.5923" stroke="#CDD1D6" stroke-width="1.5" stroke-linecap="round" stroke-linejoin="round"/>
</svg>
