<svg width="25" height="25" viewBox="0 0 25 25" fill="none" xmlns="http://www.w3.org/2000/svg">
<rect width="24" height="24" transform="translate(0.153809 0.615234)" fill="#0D0D0D"/>
<path d="M6.26379 18.1151C4.05379 16.0451 2.15381 13.095 2.15381 9.29504C2.15381 6.20504 4.64381 3.70508 7.71381 3.70508C9.53381 3.70508 11.1438 4.58507 12.1538 5.94507C13.1638 4.58507 14.7838 3.70508 16.5938 3.70508C17.7438 3.70508 18.8138 4.05504 19.7038 4.66504" stroke="#CDD1D6" stroke-width="1.5" stroke-linecap="round" stroke-linejoin="round"/>
<path d="M21.8938 7.61523C22.0638 8.14523 22.1538 8.71524 22.1538 9.30524C22.1538 16.3052 15.6738 20.4352 12.7738 21.4352C12.4338 21.5552 11.8738 21.5552 11.5338 21.4352C10.8838 21.2152 10.0638 20.8352 9.17383 20.3052" stroke="#CDD1D6" stroke-width="1.5" stroke-linecap="round" stroke-linejoin="round"/>
<path d="M22.1538 2.61523L2.15381 22.6152" stroke="#CDD1D6" stroke-width="1.5" stroke-linecap="round" stroke-linejoin="round"/>
</svg>
