<svg width="25" height="25" viewBox="0 0 25 25" fill="none" xmlns="http://www.w3.org/2000/svg">
<rect width="24" height="24" transform="translate(0.246094 0.92334)" fill="white"/>
<path d="M6.35608 18.4232C4.14608 16.3532 2.24609 13.4031 2.24609 9.60315C2.24609 6.51315 4.73609 4.01318 7.80609 4.01318C9.62609 4.01318 11.2361 4.89317 12.2461 6.25317C13.2561 4.89317 14.8761 4.01318 16.6861 4.01318C17.8361 4.01318 18.9061 4.36314 19.7961 4.97314" stroke="#292D32" stroke-width="1.5" stroke-linecap="round" stroke-linejoin="round"/>
<path d="M21.9861 7.92334C22.1561 8.45334 22.2461 9.02334 22.2461 9.61334C22.2461 16.6133 15.7661 20.7433 12.8661 21.7433C12.5261 21.8633 11.9661 21.8633 11.6261 21.7433C10.9761 21.5233 10.1561 21.1433 9.26611 20.6133" stroke="#292D32" stroke-width="1.5" stroke-linecap="round" stroke-linejoin="round"/>
<path d="M22.2461 2.92334L2.24609 22.9233" stroke="#292D32" stroke-width="1.5" stroke-linecap="round" stroke-linejoin="round"/>
</svg>
