<svg width="25" height="24" viewBox="0 0 25 24" fill="none" xmlns="http://www.w3.org/2000/svg">
<rect width="24" height="24" transform="translate(0.0800781)" fill="white"/>
<path d="M6.19006 17.5001C3.98006 15.4301 2.08008 12.4801 2.08008 8.68005C2.08008 5.59005 4.57008 3.09009 7.64008 3.09009C9.46008 3.09009 11.0701 3.97008 12.0801 5.33008C13.0901 3.97008 14.7101 3.09009 16.5201 3.09009C17.6701 3.09009 18.7401 3.44005 19.6301 4.05005" stroke="#292D32" stroke-width="1.5" stroke-linecap="round" stroke-linejoin="round"/>
<path d="M21.8201 7C21.9901 7.53 22.0801 8.1 22.0801 8.69C22.0801 15.69 15.6001 19.82 12.7001 20.82C12.3601 20.94 11.8001 20.94 11.4601 20.82C10.8101 20.6 9.9901 20.22 9.1001 19.69" stroke="#292D32" stroke-width="1.5" stroke-linecap="round" stroke-linejoin="round"/>
<path d="M22.0801 2L2.08008 22" stroke="#292D32" stroke-width="1.5" stroke-linecap="round" stroke-linejoin="round"/>
</svg>
