<svg width="25" height="25" viewBox="0 0 25 25" fill="none" xmlns="http://www.w3.org/2000/svg">
<rect width="24" height="24" transform="translate(0.153809 0.461426)" fill="#0D0D0D"/>
<path d="M6.26379 17.9612C4.05379 15.8912 2.15381 12.9412 2.15381 9.14124C2.15381 6.05124 4.64381 3.55127 7.71381 3.55127C9.53381 3.55127 11.1438 4.43126 12.1538 5.79126C13.1638 4.43126 14.7838 3.55127 16.5938 3.55127C17.7438 3.55127 18.8138 3.90123 19.7038 4.51123" stroke="#CDD1D6" stroke-width="1.5" stroke-linecap="round" stroke-linejoin="round"/>
<path d="M21.8938 7.46143C22.0638 7.99143 22.1538 8.56143 22.1538 9.15143C22.1538 16.1514 15.6738 20.2814 12.7738 21.2814C12.4338 21.4014 11.8738 21.4014 11.5338 21.2814C10.8838 21.0614 10.0638 20.6814 9.17383 20.1514" stroke="#CDD1D6" stroke-width="1.5" stroke-linecap="round" stroke-linejoin="round"/>
<path d="M22.1538 2.46143L2.15381 22.4614" stroke="#CDD1D6" stroke-width="1.5" stroke-linecap="round" stroke-linejoin="round"/>
</svg>
