<svg width="25" height="25" viewBox="0 0 25 25" fill="none" xmlns="http://www.w3.org/2000/svg">
<rect width="24" height="24" transform="translate(0.153809 0.769043)" fill="#0D0D0D"/>
<path d="M6.26379 18.2689C4.05379 16.1989 2.15381 13.2489 2.15381 9.44885C2.15381 6.35885 4.64381 3.85889 7.71381 3.85889C9.53381 3.85889 11.1438 4.73888 12.1538 6.09888C13.1638 4.73888 14.7838 3.85889 16.5938 3.85889C17.7438 3.85889 18.8138 4.20885 19.7038 4.81885" stroke="#CDD1D6" stroke-width="1.5" stroke-linecap="round" stroke-linejoin="round"/>
<path d="M21.8938 7.76904C22.0638 8.29904 22.1538 8.86905 22.1538 9.45905C22.1538 16.459 15.6738 20.5891 12.7738 21.5891C12.4338 21.7091 11.8738 21.7091 11.5338 21.5891C10.8838 21.3691 10.0638 20.989 9.17383 20.459" stroke="#CDD1D6" stroke-width="1.5" stroke-linecap="round" stroke-linejoin="round"/>
<path d="M22.1538 2.76904L2.15381 22.769" stroke="#CDD1D6" stroke-width="1.5" stroke-linecap="round" stroke-linejoin="round"/>
</svg>
