<svg width="25" height="24" viewBox="0 0 25 24" fill="none" xmlns="http://www.w3.org/2000/svg">
<rect width="24" height="24" transform="translate(0.153809)" fill="white"/>
<path d="M6.26379 17.5C4.05379 15.43 2.15381 12.48 2.15381 8.67999C2.15381 5.58999 4.64381 3.09003 7.71381 3.09003C9.53381 3.09003 11.1438 3.97002 12.1538 5.33002C13.1638 3.97002 14.7838 3.09003 16.5938 3.09003C17.7438 3.09003 18.8138 3.43999 19.7038 4.04999" stroke="#292D32" stroke-width="1.5" stroke-linecap="round" stroke-linejoin="round"/>
<path d="M21.8938 7C22.0638 7.53 22.1538 8.1 22.1538 8.69C22.1538 15.69 15.6738 19.82 12.7738 20.82C12.4338 20.94 11.8738 20.94 11.5338 20.82C10.8838 20.6 10.0638 20.22 9.17383 19.69" stroke="#292D32" stroke-width="1.5" stroke-linecap="round" stroke-linejoin="round"/>
<path d="M22.1538 2L2.15381 22" stroke="#292D32" stroke-width="1.5" stroke-linecap="round" stroke-linejoin="round"/>
</svg>
