<svg width="24" height="25" viewBox="0 0 24 25" fill="none" xmlns="http://www.w3.org/2000/svg">
<rect width="24" height="24" transform="translate(0 0.230469)" fill="#0D0D0D"/>
<path d="M6.10999 17.7303C3.89999 15.6603 2 12.7103 2 8.91028C2 5.82028 4.49 3.32031 7.56 3.32031C9.38 3.32031 10.99 4.2003 12 5.5603C13.01 4.2003 14.63 3.32031 16.44 3.32031C17.59 3.32031 18.66 3.67027 19.55 4.28027" stroke="#CDD1D6" stroke-width="1.5" stroke-linecap="round" stroke-linejoin="round"/>
<path d="M21.74 7.23047C21.91 7.76047 22 8.33047 22 8.92047C22 15.9205 15.52 20.0505 12.62 21.0505C12.28 21.1705 11.72 21.1705 11.38 21.0505C10.73 20.8305 9.91002 20.4505 9.02002 19.9205" stroke="#CDD1D6" stroke-width="1.5" stroke-linecap="round" stroke-linejoin="round"/>
<path d="M22 2.23047L2 22.2305" stroke="#CDD1D6" stroke-width="1.5" stroke-linecap="round" stroke-linejoin="round"/>
</svg>
